<?xml version="1.0" standalone="no"?><!DOCTYPE svg PUBLIC "-//W3C//DTD SVG 1.1//EN"
  "http://www.w3.org/Graphics/SVG/1.1/DTD/svg11.dtd">
<svg t="1564316731967" class="icon" viewBox="0 0 1024 1024" version="1.1" xmlns="http://www.w3.org/2000/svg" p-id="1433"
     width="200" height="200">
  <defs>
    <style type="text/css"></style>
  </defs>
  <path
    d="M866.309 66.195H632.104c-51.75 0-93.702 41.952-93.702 93.702v234.205c0 51.75 41.952 93.702 93.702 93.702h234.205c51.75 0 93.702-41.952 93.702-93.702V159.898c0.001-51.751-41.951-93.703-93.702-93.703z m6.301 238.918H625.804c-15.524 0-28.111-12.587-28.111-28.111 0-15.524 12.587-28.111 28.111-28.111H872.61c15.524 0 28.111 12.587 28.111 28.111-0.001 15.524-12.587 28.111-28.111 28.111zM865.638 538.709H631.913c-51.644 0-93.51 41.866-93.51 93.51v233.73c0 51.644 41.866 93.51 93.51 93.51h233.726c51.644 0 93.51-41.866 93.51-93.51V632.22c0-51.645-41.866-93.511-93.511-93.511z m-116.936 95.013h0.096c15.492 0 28.053 12.561 28.053 28.053s-12.561 28.053-28.053 28.053-28.099-12.561-28.099-28.053 12.511-28.053 28.003-28.053z m0.096 231.988c-15.492 0-28.099-12.561-28.099-28.053s12.511-28.053 28.003-28.053h0.096c15.492 0 28.053 12.561 28.053 28.053s-12.561 28.053-28.053 28.053z m123.128-88.572h-246.3c-15.492 0-28.053-12.561-28.053-28.053s12.561-28.053 28.053-28.053h246.3c15.492 0 28.053 12.561 28.053 28.053s-12.561 28.053-28.053 28.053zM393.361 66.195H159.539c-51.667 0-93.551 41.884-93.551 93.551v233.827c0 51.667 41.884 93.551 93.551 93.551h233.822c51.667 0 93.551-41.884 93.551-93.551V159.746c0-51.667-41.884-93.551-93.551-93.551z m6.29 238.532h-95.136v95.136c0 15.499-12.566 28.065-28.065 28.065s-28.065-12.566-28.065-28.065v-95.136h-95.136c-15.499 0-28.065-12.566-28.065-28.065s12.566-28.065 28.065-28.065h95.136v-95.136c0-15.499 12.566-28.065 28.065-28.065s28.065 12.566 28.065 28.065v95.136h95.136c15.499 0 28.065 12.566 28.065 28.065 0.001 15.499-12.566 28.065-28.065 28.065zM393.885 541.646H161.372c-51.377 0-93.027 41.649-93.027 93.027v232.523c0 51.377 41.65 93.027 93.027 93.027h232.513c51.377 0 93.027-41.65 93.027-93.027V634.673c0-51.377-41.65-93.027-93.027-93.027z m-9.898 276.188c10.902 10.897 10.902 28.567 0 39.464-5.446 5.451-12.591 8.176-19.732 8.176s-14.286-2.725-19.732-8.176l-66.897-66.897-66.897 66.897c-5.446 5.451-12.591 8.176-19.732 8.176s-14.286-2.725-19.732-8.176c-10.902-10.897-10.902-28.567 0-39.464l66.897-66.897-66.897-66.897c-10.902-10.897-10.902-28.567 0-39.464 10.893-10.902 28.571-10.902 39.464 0l66.897 66.897 66.897-66.897c10.893-10.902 28.571-10.902 39.464 0 10.902 10.897 10.902 28.567 0 39.464l-66.897 66.897 66.897 66.897z"
    p-id="1434"></path>
</svg>
