<svg t="1589227601351" class="icon" viewBox="0 0 1024 1024" version="1.1" xmlns="http://www.w3.org/2000/svg" p-id="7464" width="400" height="390" data-spm-anchor-id="a313x.7781069.0.i29"><path d="M968.448 156.9792 55.5008 156.9792c-28.0064 0-50.7392 22.6816-50.7392 50.7392l0 118.3744 1014.3744 0L1019.136 207.7184C1019.1872 179.712 996.4544 156.9792 968.448 156.9792" p-id="7465" data-spm-anchor-id="a313x.7781069.0.i32" class=""></path><path d="M4.8128 782.5408c0 28.0064 22.6816 50.688 50.7392 50.688l912.9472 0c28.0064 0 50.7392-22.6816 50.7392-50.688L1019.2384 393.6768 4.8128 393.6768 4.8128 782.5408zM528.896 630.3744l67.584 0c9.3184 0 16.9472 7.5776 16.9472 16.9472s-7.6288 16.896-16.9472 16.896l-67.584 0c-9.3696 0-16.9472-7.5776-16.9472-16.896S519.5264 630.3744 528.896 630.3744M393.6256 630.3744l67.6352 0c9.3184 0 16.9472 7.5776 16.9472 16.9472s-7.6288 16.896-16.9472 16.896L393.6256 664.2176c-9.3696 0-16.9472-7.5776-16.9472-16.896S384.3072 630.3744 393.6256 630.3744M258.3552 630.3744l67.6352 0c9.3184 0 16.896 7.5776 16.896 16.9472s-7.5776 16.896-16.896 16.896L258.3552 664.2176c-9.3184 0-16.896-7.5776-16.896-16.896S249.0368 630.3744 258.3552 630.3744M123.136 630.3744l67.6352 0c9.3184 0 16.896 7.5776 16.896 16.9472s-7.5776 16.896-16.896 16.896L123.136 664.2176c-9.3696 0-16.896-7.5776-16.896-16.896S113.8176 630.3744 123.136 630.3744M123.136 698.0096l473.344 0c9.3184 0 16.9472 7.5776 16.9472 16.896 0 9.3696-7.6288 16.896-16.9472 16.896L123.136 731.8016c-9.3696 0-16.896-7.5264-16.896-16.896C106.24 705.5872 113.8176 698.0096 123.136 698.0096" p-id="7466" data-spm-anchor-id="a313x.7781069.0.i30" class=""></path></svg>
