<svg t="1589229319987" class="icon" viewBox="0 0 1024 1024" version="1.1" xmlns="http://www.w3.org/2000/svg" p-id="16893" width="320" height="320"><path d="M886.777197 601.693812l0-17.246803c10.743692-4.603855 50.65161 15.34857 50.65161 15.34857l15.34857-15.34857c-24.558325-55.255465-168.837336-72.447009-168.837336-72.447009l-85.952604-228.390687 93.627401 0 0-95.16236L665.754315 188.446953l-56.790424 67.535139-96.964402 21.488407 9.475815 27.628244 101.302197-15.34857c12.278651 12.279674 42.976814 248.686942 42.976814 248.686942-38.371936 23.059182-69.069075 93.591585-69.069075 93.591585l-92.093465 0c-42.976814-35.302017-41.441854-120.027677-41.441854-120.027677L111.661637 512.001023c1.534959 41.134863-38.371936 116.957759-38.371936 116.957759 14.107299 1.880837 33.397644 18.741853 46.224788 31.521924-8.476045 17.902742-13.224186 37.914518-13.224186 59.036581 0 76.292594 61.84658 138.13815 138.139174 138.13815 66.831105 0 122.573663-47.457872 135.373177-110.51093l299.463396 0c12.799514 63.053058 68.542072 110.51093 135.373177 110.51093 76.292594 0 138.13815-61.84658 138.13815-138.13815C952.777377 669.663856 926.366867 625.985054 886.777197 601.693812zM244.429477 770.934331c-28.39777 0-51.418067-23.020296-51.418067-51.418067s23.020296-51.418067 51.418067-51.418067 51.418067 23.020296 51.418067 51.418067S272.827247 770.934331 244.429477 770.934331zM814.639227 770.934331c-28.398794 0-51.41909-23.020296-51.41909-51.418067s23.020296-51.418067 51.41909-51.418067c28.396747 0 51.417043 23.020296 51.417043 51.418067S843.035974 770.934331 814.639227 770.934331zM458.548112 436.846346c0 8.05342-6.52767 14.582113-14.58109 14.582113L130.850675 451.42846c-8.05342 0-14.58109-6.52767-14.58109-14.582113l0 0c0-8.052396 6.52767-14.58109 14.58109-14.58109l313.116347 0C452.020442 422.265256 458.548112 428.79395 458.548112 436.846346L458.548112 436.846346z" p-id="16894"></path></svg>
