<svg t="1589229446840" class="icon" viewBox="0 0 1024 1024" version="1.1" xmlns="http://www.w3.org/2000/svg" p-id="18774" width="340" height="340"><path d="M512 51.2C258.56 51.2 51.2 256 51.2 512c0 253.44 204.8 460.8 460.8 460.8 253.44 0 460.8-204.8 460.8-460.8 0-253.44-207.36-460.8-460.8-460.8z m281.6 312.32L427.52 729.6c-10.24 10.24-23.04 10.24-33.28 0l-15.36-15.36c-5.12-5.12-5.12-10.24-7.68-15.36L230.4 535.04c-10.24-7.68-10.24-23.04 0-33.28l15.36-15.36c10.24-7.68 23.04-7.68 33.28 0l138.24 158.72 327.68-327.68c10.24-10.24 23.04-10.24 33.28 0l15.36 15.36c10.24 7.68 10.24 23.04 0 30.72z" fill="" p-id="18775"></path></svg>
