<?xml version="1.0" standalone="no"?><!DOCTYPE svg PUBLIC "-//W3C//DTD SVG 1.1//EN" "http://www.w3.org/Graphics/SVG/1.1/DTD/svg11.dtd"><svg t="1589461266191" class="icon" viewBox="0 0 1024 1024" version="1.1" xmlns="http://www.w3.org/2000/svg" p-id="1037" width="300" height="300" xmlns:xlink="http://www.w3.org/1999/xlink"><defs><style type="text/css"></style></defs><path d="M588.8 761.6H209.6128a28.7232 28.7232 0 0 1-28.416-24.576 34.816 34.816 0 0 1-1.536-10.24l-0.256-17.792H588.8v-118.7072H86.4l29.5168-100.3264h477.6192A51.2768 51.2768 0 0 1 640 459.9296h122.0096a247.7312 247.7312 0 0 1 74.9824-11.6736c26.112 0 51.2256 4.1984 74.88 11.6736h30.8224l12.3136-40.9344v40.9344H972.8c9.344 0 18.0224 2.7136 25.6 7.1424v-185.9328c0-41.6768-26.368-75.4688-82.7904-75.4688H216.3968a118.784 118.784 0 0 0-21.7088 2.0224c-18.2016 2.56-30.336 9.4208-39.552 19.6608-11.7248 11.2896-18.6624 26.0352-20.6592 42.8544-1.024 3.84-2.0736 7.5776-3.072 11.7504L25.6 633.5232c0 41.6768 26.3936 75.4432 82.816 75.4432h25.1648v32.1792c0 41.6768 26.3936 75.4432 82.816 75.4432H588.8V761.6z" p-id="1038"></path><path d="M972.8 511.1296H665.6c-14.08 0-25.6 11.52-25.6 25.6v256c0 14.08 11.52 25.6 25.6 25.6h307.2c14.08 0 25.6-11.52 25.6-25.6v-256c0-14.08-11.52-25.6-25.6-25.6z m-159.6928 188.5696c-0.5376 4.6848-1.024 9.5232-1.408 14.4896l-0.128 1.536-1.536 0.2304-22.9888 3.3792-5.5296 0.8192v46.464h-18.8416V722.944c-8.9088 1.3568-17.7664 2.688-26.624 4.0704l-17.024 2.6112-2.7648-19.4816 1.9456-0.2304c14.0544-1.7152 28.9024-3.584 44.4672-5.6576v-25.7792H721.152l0.2048-16.3328c6.6816-14.1824 13.1328-30.976 19.1744-49.92h-21.6064v-17.6128h26.9312c2.7136-9.4208 5.4272-19.584 8.1664-30.9504l0.4608-1.7664 20.48 3.9936-0.6144 2.0224c-2.7392 9.0624-5.5552 17.9712-8.3712 26.7008h42.9312v17.6128h-48.768c-5.632 16.6912-11.4688 33.0496-17.408 48.6144h19.968v-39.9104h18.8416v39.9104h27.3408v17.6128h-27.3408v23.2192c9.4976-1.3312 19.3024-2.688 29.3888-4.1472l2.4832-0.3584-0.3072 2.5344z m108.8-46.72h-76.032c-2.1248 7.7056-4.2496 15.1808-6.3744 22.4768h72.8832v17.0496l-0.4864 0.5376-37.0432 42.3936c7.424 4.9152 14.7968 9.9072 22.0928 14.8992l1.6896 1.152-12.9792 16.4608-1.5104-1.1008a1020.2368 1020.2368 0 0 0-68.1216-46.72l-1.7664-1.1008 11.4432-15.2576 1.5104 0.9472c10.5728 6.6304 21.2736 13.4656 31.8208 20.3776l27.5712-32.0256h-67.6352l0.1024-16.4864c2.2016-6.9888 4.5056-14.7456 6.9888-23.6288h-22.5024v-17.6128h27.392c1.8944-7.3216 3.84-14.9504 5.8112-22.8864h-23.68v-17.6128h27.9552c2.2528-9.4464 4.5056-19.3024 6.7328-29.4656l0.3328-1.536h19.5328l-0.512 2.3296c-1.9712 9.2672-4.1216 18.6624-6.528 28.672h53.9648v17.6128h-58.1376a2445.312 2445.312 0 0 1-5.8112 22.8864h71.2448v17.6384z" p-id="1039"></path></svg>
